<svg xmlns="http://www.w3.org/2000/svg" xmlns:xlink="http://www.w3.org/1999/xlink" xmlns:sketch="http://www.bohemiancoding.com/sketch/ns" viewBox="0 0 60 75" version="1.1" x="0px" y="0px"><title>buddhist-monk</title><desc>Created with Sketch.</desc><g stroke="none" stroke-width="1" fill="none" fill-rule="evenodd" sketch:type="MSPage"><g sketch:type="MSArtboardGroup" fill="#000000"><path d="M14.2927764,29.916 C14.8707764,31.329 16.4957764,35.228 18.1047764,38.447 C19.5157764,41.268 22.9357764,46 29.9997764,46 C37.0637764,46 40.4837764,41.268 41.8937764,38.447 C43.5037764,35.228 45.1287764,31.329 45.7067764,29.916 C47.0217764,29.597 47.9997764,28.411 47.9997764,27 L47.9997764,23 C47.9997764,21.997 47.4467764,20.587 45.9947764,20.141 C45.8167764,5.85 41.1437764,0 29.9997764,0 C18.8557764,0 14.1827764,5.85 14.0047764,20.141 C12.5527764,20.587 11.9997764,21.997 11.9997764,23 L11.9997764,27 C11.9997764,28.411 12.9777764,29.597 14.2927764,29.916 L14.2927764,29.916 Z M13.9997764,23.012 C14.0117764,22.55 14.1937764,22 14.9997764,22 C15.5527764,22 15.9997764,21.552 15.9997764,21 C15.9997764,7.149 19.7937764,2 29.9997764,2 C40.2057764,2 43.9997764,7.149 43.9997764,21 C43.9997764,21.552 44.4467764,22 44.9997764,22 C45.8057764,22 45.9877764,22.55 45.9997764,23 L45.9997764,27 C45.9997764,27.551 45.5517764,28 44.9997764,28 C44.5907764,28 44.2237764,28.249 44.0707764,28.628 C44.0517764,28.678 42.0647764,33.635 40.1047764,37.553 C38.6347764,40.494 35.6877764,44 29.9997764,44 C24.3107764,44 21.3647764,40.494 19.8937764,37.553 C17.9357764,33.637 15.9477764,28.678 15.9287764,28.628 C15.7757764,28.249 15.4087764,28 14.9997764,28 C14.4477764,28 13.9997764,27.551 13.9997764,27 L13.9997764,23.012 L13.9997764,23.012 Z M27.4467764,34.605 C27.4467764,34.605 28.3107764,35 29.9997764,35 C31.6907764,35 32.5557764,34.604 32.5637764,34.6 C33.0607764,34.369 33.6547764,34.575 33.8937764,35.067 C34.1327764,35.56 33.9357764,36.149 33.4467764,36.395 C33.3227764,36.457 32.1727764,37 29.9997764,37 C27.8267764,37 26.6767764,36.457 26.5527764,36.395 C26.0587764,36.148 25.8577764,35.547 26.1047764,35.053 C26.3527764,34.559 26.9517764,34.359 27.4467764,34.605 L27.4467764,34.605 Z M59.3157764,59.949 C59.2107764,59.984 59.1037764,60.001 58.9997764,60.001 C58.5807764,60.001 58.1907764,59.735 58.0517764,59.316 L56.9857764,56.122 C56.1397764,53.56 54.9787764,50.058 42.2977764,50.041 C41.7767764,50.399 40.3717764,51.46 38.9487764,53.315 C38.8917764,53.488 38.7717764,53.632 38.6277764,53.753 C37.6087764,55.17 36.6127764,56.994 35.9617764,59.275 C35.8097764,59.807 35.2507764,60.113 34.7257764,59.961 C34.1937764,59.81 33.8867764,59.256 34.0377764,58.725 C34.3127764,57.761 34.6447764,56.874 35.0097764,56.053 C32.6027764,57.825 30.7337764,59.68 30.7067764,59.707 C30.5117764,59.902 30.2557764,60 29.9997764,60 C29.7437764,60 29.4877764,59.902 29.2927764,59.707 C28.9017764,59.316 28.9017764,58.684 29.2927764,58.293 C29.4557764,58.13 33.2287764,54.384 37.2007764,52.292 C37.4567764,51.948 37.7117764,51.631 37.9647764,51.333 C36.9647764,50.788 35.9997764,50.008 35.9997764,49 L35.9997764,48 C35.9997764,47.448 36.4467764,47 36.9997764,47 C37.5527764,47 37.9997764,47.448 37.9997764,48 L37.9997764,48.906 C38.1617764,49.132 38.7567764,49.509 39.4087764,49.818 C40.5427764,48.759 41.4037764,48.232 41.4907764,48.181 C41.7027764,48.057 41.9577764,48.043 42.1987764,48.041 C56.4207764,48.041 57.9027764,52.523 58.8857764,55.494 L59.9477764,58.684 C60.1227764,59.208 59.8397764,59.774 59.3157764,59.949 L59.3157764,59.949 Z M29.3587764,54.768 C23.7027764,50.055 18.0567764,50 17.9997764,50 C5.03777642,50 3.91777642,53.388 3.01777642,56.109 L1.94777642,59.316 C1.80877642,59.735 1.41877642,60.001 0.999776417,60.001 C0.894776417,60.001 0.788776417,59.984 0.683776417,59.949 C0.159776417,59.774 -0.123223583,59.208 0.0517764168,58.684 L1.11777642,55.481 C2.16277642,52.324 3.59377642,48 17.9997764,48 C18.1277764,48 19.6987764,48.017 21.9997764,48.653 L21.9997764,48 C21.9997764,47.448 22.4467764,47 22.9997764,47 C23.5527764,47 23.9997764,47.448 23.9997764,48 L23.9997764,49.311 C26.0037764,50.08 28.3197764,51.298 30.6407764,53.232 C31.0647764,53.585 31.1217764,54.216 30.7687764,54.64 C30.4137764,55.064 29.7847764,55.122 29.3587764,54.768 L29.3587764,54.768 Z M44.5547764,51.168 C45.0147764,51.474 45.1387764,52.095 44.8317764,52.555 C43.0207764,55.272 42.9997764,58.963 42.9997764,59 C42.9997764,59.552 42.5527764,60 41.9997764,60 C41.4467764,60 40.9997764,59.552 40.9997764,59 C40.9997764,58.824 41.0237764,54.66 43.1677764,51.445 C43.4727764,50.986 44.0927764,50.86 44.5547764,51.168 L44.5547764,51.168 Z M33.0017764,23.313 C32.9677764,22.761 33.3867764,22.287 33.9367764,22.252 L37.9367764,22.002 C38.4827764,21.962 38.9627764,22.386 38.9977764,22.938 C39.0317764,23.489 38.6127764,23.963 38.0617764,23.998 L36.9997764,24.065 L36.9997764,24.25 C36.9997764,24.802 36.5527764,25.25 35.9997764,25.25 C35.4467764,25.25 34.9997764,24.802 34.9997764,24.25 L34.9997764,24.189 L34.0617764,24.248 C34.0407764,24.25 34.0207764,24.25 33.9987764,24.25 C33.4757764,24.25 33.0347764,23.842 33.0017764,23.313 L33.0017764,23.313 Z M21.0017764,22.938 C21.0357764,22.386 21.5177764,21.964 22.0617764,22.002 L26.0617764,22.252 C26.6127764,22.287 27.0317764,22.761 26.9977764,23.313 C26.9647764,23.842 26.5237764,24.25 26.0007764,24.25 C25.9787764,24.25 25.9587764,24.25 25.9367764,24.248 L24.9997764,24.189 L24.9997764,24.25 C24.9997764,24.802 24.5527764,25.25 23.9997764,25.25 C23.4467764,25.25 22.9997764,24.802 22.9997764,24.25 L22.9997764,24.065 L21.9377764,23.998 C21.3867764,23.963 20.9677764,23.489 21.0017764,22.938 L21.0017764,22.938 Z" sketch:type="MSShapeGroup"/></g></g><text x="0" y="75" fill="#000000" font-size="5px" font-weight="bold" font-family="'Helvetica Neue', Helvetica, Arial-Unicode, Arial, Sans-serif">Created by Pixel Bazaar</text><text x="0" y="80" fill="#000000" font-size="5px" font-weight="bold" font-family="'Helvetica Neue', Helvetica, Arial-Unicode, Arial, Sans-serif">from the Noun Project</text></svg>